<svg width="617" height="225" viewBox="0 0 617 225" fill="none" xmlns="http://www.w3.org/2000/svg">
<rect x="3" y="3" width="611" height="219" rx="9" fill="white" stroke="black" stroke-width="6"/>
<path d="M196.918 79.7061C198.335 71.8229 196.333 64.5277 191.335 59.5291C186.336 54.5304 179.042 52.5287 171.158 53.9457C162.517 47.202 148.686 49.2529 138.991 58.9477C135.61 62.3294 133.068 66.3216 131.57 70.5803C125.343 71.6373 119.305 74.8532 114.401 79.7572C109.148 85.0106 105.817 91.5938 105.022 98.2944C104.199 105.232 106.167 111.475 110.564 115.872C110.961 116.268 111.378 116.649 111.814 117.011C110.488 121.452 110.574 125.857 111.975 129.625L81.15 160.45C78.2833 163.317 78.2833 167.982 81.15 170.85C82.5838 172.283 84.4667 173 86.3497 173C88.2327 173 90.1159 172.283 91.5494 170.85L122.97 139.429C126.326 140.284 130.076 140.178 133.853 139.05C134.215 139.486 134.595 139.903 134.992 140.299C138.735 144.042 143.814 146.025 149.521 146.025C150.519 146.025 151.537 145.964 152.57 145.842C159.27 145.047 165.854 141.716 171.107 136.463C176.011 131.559 179.226 125.521 180.283 119.294C184.542 117.797 188.534 115.254 191.916 111.873C201.611 102.178 203.662 88.3472 196.918 79.7061ZM87.769 167.069C86.9864 167.852 85.7131 167.852 84.9304 167.07C84.1478 166.287 84.1478 165.013 84.9304 164.231L114.763 134.398C115.023 134.702 115.296 134.998 115.581 135.283C116.253 135.955 116.98 136.556 117.752 137.086L87.769 167.069ZM195.329 94.2287C194.661 99.1992 192.106 104.123 188.136 108.093C184.955 111.273 181.153 113.553 177.14 114.684C176.086 114.981 175.319 115.892 175.207 116.982C174.625 122.606 171.826 128.182 167.327 132.682C162.079 137.93 155.493 140.688 149.57 140.688C145.413 140.687 141.583 139.329 138.772 136.519C138.143 135.889 137.567 135.181 137.061 134.414C136.554 133.647 135.707 133.214 134.829 133.214C134.503 133.214 134.172 133.274 133.854 133.399C128.274 135.588 122.721 134.862 119.362 131.503C116.002 128.143 115.276 122.59 117.466 117.01C117.927 115.836 117.503 114.498 116.45 113.803C115.683 113.297 114.975 112.721 114.345 112.091C111.13 108.877 109.705 104.201 110.331 98.9238C110.986 93.4099 113.773 87.9455 118.182 83.537C122.682 79.0374 128.257 76.2389 133.882 75.657C134.972 75.5445 135.883 74.7781 136.18 73.7235C137.311 69.7108 139.591 65.9085 142.771 62.7279C146.741 58.7579 151.665 56.2032 156.635 55.5345C161.371 54.8968 165.626 56.0548 168.618 58.7937C169.264 59.3852 170.16 59.6226 171.014 59.4288C177.573 57.9421 183.602 59.3566 187.555 63.3089C191.507 67.2615 192.921 73.2903 191.435 79.85C191.241 80.7043 191.479 81.5993 192.07 82.2455C194.809 85.2385 195.966 89.494 195.329 94.2287Z" fill="black"/>
<path d="M195.329 94.2287C194.661 99.1992 192.106 104.123 188.136 108.093C184.955 111.273 181.153 113.553 177.14 114.684C176.086 114.981 175.319 115.892 175.207 116.982C174.625 122.606 171.826 128.182 167.327 132.682C162.079 137.93 155.493 140.688 149.57 140.688C145.413 140.687 141.583 139.329 138.772 136.519C138.143 135.889 137.567 135.181 137.061 134.414C136.554 133.647 135.707 133.214 134.829 133.214C134.503 133.214 134.172 133.274 133.854 133.399C128.274 135.588 122.721 134.862 119.362 131.503C116.002 128.143 115.276 122.59 117.466 117.01C117.927 115.836 117.503 114.498 116.45 113.803C115.683 113.297 114.975 112.721 114.345 112.091C111.13 108.877 109.705 104.201 110.331 98.9238C110.986 93.4099 113.773 87.9455 118.182 83.537C122.682 79.0374 128.257 76.2389 133.882 75.657C134.972 75.5445 135.883 74.7781 136.18 73.7235C137.311 69.7108 139.591 65.9085 142.771 62.7279C146.741 58.7579 151.665 56.2032 156.635 55.5345C161.371 54.8968 165.626 56.0548 168.618 58.7937C169.264 59.3852 170.16 59.6226 171.014 59.4288C177.573 57.9421 183.602 59.3566 187.555 63.3089C191.507 67.2615 192.921 73.2903 191.435 79.85C191.241 80.7043 191.479 81.5993 192.07 82.2455C194.809 85.2385 195.966 89.494 195.329 94.2287Z" fill="#00FFF0"/>
<path d="M164.811 113.155C163.343 113.004 162.029 114.07 161.877 115.539C161.602 118.201 160.209 120.963 158.054 123.118C155.911 125.261 153.272 126.614 150.622 126.929C148.211 127.216 146.094 126.585 144.664 125.156C143.621 124.112 141.929 124.112 140.884 125.156C139.84 126.2 139.84 127.892 140.884 128.936C143.112 131.164 146.116 132.344 149.479 132.344C150.06 132.344 150.652 132.309 151.252 132.238C155.088 131.783 158.847 129.887 161.834 126.899C164.886 123.847 166.79 120.008 167.195 116.089C167.347 114.62 166.28 113.307 164.811 113.155V113.155Z" fill="black"/>
<path d="M145.564 68.1292C143.169 70.5242 141.445 73.4147 140.579 76.4878C140.178 77.9087 141.005 79.3853 142.426 79.7861C142.668 79.8545 142.913 79.8872 143.153 79.8872C144.32 79.8872 145.392 79.1171 145.724 77.9389C146.343 75.7442 147.595 73.6594 149.345 71.9098C153.637 67.6179 159.819 66.5893 163.126 69.6159C164.215 70.6124 165.906 70.5378 166.903 69.4487C167.899 68.3597 167.824 66.6687 166.735 65.6721C161.256 60.6572 151.957 61.7366 145.564 68.1292V68.1292Z" fill="black"/>
<circle cx="127.932" cy="103.5" r="7.5" fill="black" fill-opacity="0.13"/>
<circle cx="176.932" cy="91.5" r="9.5" fill="black" fill-opacity="0.13"/>
<path d="M298.581 120.968H311.23C310.892 125.445 309.65 129.416 307.504 132.881C305.357 136.315 302.368 139.014 298.535 140.976C294.702 142.939 290.057 143.92 284.598 143.92C280.398 143.92 276.611 143.184 273.238 141.712C269.895 140.21 267.028 138.079 264.637 135.319C262.276 132.529 260.467 129.186 259.209 125.292C257.952 121.367 257.324 116.967 257.324 112.091V106.986C257.324 102.111 257.967 97.7104 259.255 93.7855C260.543 89.8606 262.383 86.5183 264.775 83.7586C267.197 80.9683 270.095 78.8218 273.468 77.3193C276.871 75.8168 280.674 75.0656 284.874 75.0656C290.333 75.0656 294.947 76.0775 298.719 78.1012C302.49 80.0944 305.419 82.8387 307.504 86.3343C309.589 89.8299 310.846 93.8468 311.275 98.385H298.627C298.382 95.564 297.768 93.1722 296.787 91.2098C295.837 89.2473 294.395 87.7602 292.464 86.7483C290.562 85.7057 288.033 85.1845 284.874 85.1845C282.421 85.1845 280.26 85.6444 278.389 86.5643C276.549 87.4842 275.016 88.864 273.79 90.7038C272.563 92.513 271.643 94.782 271.03 97.5111C270.417 100.209 270.11 103.337 270.11 106.894V112.091C270.11 115.495 270.386 118.546 270.938 121.244C271.49 123.943 272.349 126.227 273.514 128.098C274.679 129.968 276.181 131.394 278.021 132.375C279.861 133.356 282.053 133.847 284.598 133.847C287.695 133.847 290.21 133.356 292.142 132.375C294.104 131.394 295.591 129.953 296.603 128.052C297.646 126.151 298.305 123.789 298.581 120.968ZM317.945 118.623V117.657C317.945 114.008 318.466 110.65 319.509 107.584C320.551 104.487 322.069 101.804 324.062 99.5349C326.055 97.2658 328.493 95.5026 331.375 94.2454C334.258 92.9576 337.539 92.3137 341.218 92.3137C344.959 92.3137 348.271 92.9576 351.153 94.2454C354.066 95.5026 356.519 97.2658 358.512 99.5349C360.505 101.804 362.023 104.487 363.066 107.584C364.108 110.65 364.63 114.008 364.63 117.657V118.623C364.63 122.241 364.108 125.599 363.066 128.696C362.023 131.762 360.505 134.445 358.512 136.745C356.519 139.014 354.081 140.777 351.199 142.034C348.317 143.291 345.02 143.92 341.31 143.92C337.631 143.92 334.334 143.291 331.421 142.034C328.508 140.777 326.055 139.014 324.062 136.745C322.069 134.445 320.551 131.762 319.509 128.696C318.466 125.599 317.945 122.241 317.945 118.623ZM330.087 117.657V118.623C330.087 120.8 330.302 122.839 330.731 124.74C331.161 126.641 331.82 128.312 332.709 129.753C333.598 131.195 334.748 132.329 336.159 133.157C337.6 133.954 339.317 134.353 341.31 134.353C343.273 134.353 344.959 133.954 346.37 133.157C347.78 132.329 348.93 131.195 349.819 129.753C350.739 128.312 351.414 126.641 351.843 124.74C352.272 122.839 352.487 120.8 352.487 118.623V117.657C352.487 115.51 352.272 113.502 351.843 111.632C351.414 109.73 350.739 108.059 349.819 106.618C348.93 105.146 347.765 103.996 346.324 103.168C344.913 102.31 343.211 101.881 341.218 101.881C339.256 101.881 337.569 102.31 336.159 103.168C334.748 103.996 333.598 105.146 332.709 106.618C331.82 108.059 331.161 109.73 330.731 111.632C330.302 113.502 330.087 115.51 330.087 117.657ZM397.01 93.2336V101.973H368.493V93.2336H397.01ZM376.128 80.9989H388.317V128.65C388.317 130.121 388.516 131.256 388.915 132.053C389.313 132.85 389.911 133.387 390.709 133.663C391.506 133.939 392.456 134.077 393.56 134.077C394.358 134.077 395.093 134.031 395.768 133.939C396.443 133.847 397.01 133.755 397.47 133.663L397.516 142.77C396.504 143.107 395.354 143.383 394.066 143.598C392.809 143.813 391.383 143.92 389.789 143.92C387.06 143.92 384.668 143.46 382.614 142.54C380.559 141.589 378.965 140.072 377.83 137.987C376.696 135.871 376.128 133.08 376.128 129.615V80.9989ZM428.654 93.2336V101.973H400.138V93.2336H428.654ZM407.773 80.9989H419.961V128.65C419.961 130.121 420.161 131.256 420.559 132.053C420.958 132.85 421.556 133.387 422.353 133.663C423.15 133.939 424.101 134.077 425.205 134.077C426.002 134.077 426.738 134.031 427.413 133.939C428.087 133.847 428.654 133.755 429.114 133.663L429.16 142.77C428.148 143.107 426.999 143.383 425.711 143.598C424.454 143.813 423.028 143.92 421.433 143.92C418.704 143.92 416.312 143.46 414.258 142.54C412.204 141.589 410.609 140.072 409.475 137.987C408.34 135.871 407.773 133.08 407.773 129.615V80.9989ZM433.392 118.623V117.657C433.392 114.008 433.913 110.65 434.956 107.584C435.998 104.487 437.516 101.804 439.509 99.5349C441.502 97.2658 443.94 95.5026 446.822 94.2454C449.705 92.9576 452.986 92.3137 456.665 92.3137C460.406 92.3137 463.718 92.9576 466.6 94.2454C469.513 95.5026 471.966 97.2658 473.959 99.5349C475.952 101.804 477.47 104.487 478.513 107.584C479.555 110.65 480.077 114.008 480.077 117.657V118.623C480.077 122.241 479.555 125.599 478.513 128.696C477.47 131.762 475.952 134.445 473.959 136.745C471.966 139.014 469.528 140.777 466.646 142.034C463.764 143.291 460.468 143.92 456.757 143.92C453.078 143.92 449.781 143.291 446.868 142.034C443.955 140.777 441.502 139.014 439.509 136.745C437.516 134.445 435.998 131.762 434.956 128.696C433.913 125.599 433.392 122.241 433.392 118.623ZM445.535 117.657V118.623C445.535 120.8 445.749 122.839 446.178 124.74C446.608 126.641 447.267 128.312 448.156 129.753C449.045 131.195 450.195 132.329 451.606 133.157C453.047 133.954 454.764 134.353 456.757 134.353C458.72 134.353 460.406 133.954 461.817 133.157C463.227 132.329 464.377 131.195 465.266 129.753C466.186 128.312 466.861 126.641 467.29 124.74C467.719 122.839 467.934 120.8 467.934 118.623V117.657C467.934 115.51 467.719 113.502 467.29 111.632C466.861 109.73 466.186 108.059 465.266 106.618C464.377 105.146 463.212 103.996 461.771 103.168C460.36 102.31 458.658 101.881 456.665 101.881C454.703 101.881 453.016 102.31 451.606 103.168C450.195 103.996 449.045 105.146 448.156 106.618C447.267 108.059 446.608 109.73 446.178 111.632C445.749 113.502 445.535 115.51 445.535 117.657ZM500.82 103.858V143H488.678V93.2336H500.084L500.82 103.858ZM498.889 116.323H495.301C495.332 112.705 495.822 109.424 496.773 106.48C497.723 103.536 499.057 101.007 500.774 98.8909C502.522 96.7752 504.592 95.15 506.984 94.0155C509.375 92.8809 512.043 92.3137 514.987 92.3137C517.378 92.3137 519.54 92.651 521.472 93.3255C523.404 94.0001 525.06 95.0733 526.439 96.5452C527.85 98.017 528.923 99.9488 529.659 102.341C530.426 104.702 530.809 107.615 530.809 111.08V143H518.574V110.988C518.574 108.718 518.237 106.925 517.562 105.606C516.919 104.288 515.968 103.352 514.711 102.8C513.484 102.249 511.966 101.973 510.157 101.973C508.287 101.973 506.646 102.356 505.236 103.122C503.856 103.858 502.691 104.886 501.74 106.204C500.82 107.523 500.115 109.04 499.624 110.758C499.134 112.475 498.889 114.33 498.889 116.323Z" fill="black"/>
</svg>
